<?xml version="1.0" encoding="UTF-8"?>
<svg version="1.1" xmlns="http://www.w3.org/2000/svg" width="1600" height="425">
<path d="M0 0 C27.06 0 54.12 0 82 0 C83.86456416 9.9443422 85.68088982 19.85584152 87.26831055 29.84179688 C87.47357361 31.12185104 87.67883667 32.40190521 87.89031982 33.7207489 C88.44367572 37.17186906 88.99444798 40.62339675 89.54469275 44.07501411 C90.12368953 47.70402533 90.70515102 51.33264165 91.28633118 54.96130371 C92.38229466 61.80640466 93.47609846 68.65184881 94.56909162 75.4974246 C95.81531813 83.30203106 97.06400529 91.10624322 98.31288087 98.91042614 C100.87795729 114.93985248 103.44000304 130.96976164 106 147 C108.14587464 140.34904038 109.14583414 133.56854204 110.23071289 126.67675781 C110.44575583 125.33079627 110.66118473 123.98489634 110.87696838 122.63905334 C111.33887031 119.75300728 111.79809169 116.86655229 112.25520515 113.97974396 C112.9779353 109.41578075 113.70686157 104.85282029 114.43663025 100.28997803 C115.72075606 92.25600529 116.99965878 84.22120776 118.27740479 76.18621826 C120.2033913 64.07514183 122.13354156 51.96472988 124.06852716 39.855088 C124.79333766 35.31777773 125.51542394 30.7800447 126.2353574 26.24195814 C126.68290755 23.42381368 127.13251205 20.60599972 127.58264732 17.78826714 C127.89070795 15.85568604 128.19621201 13.92269797 128.50164795 11.98970032 C128.68524368 10.84295334 128.86883942 9.69620636 129.05799866 8.51470947 C129.21671479 7.51628147 129.37543093 6.51785347 129.53895664 5.48917007 C130 3 130 3 131 0 C158.06 0 185.12 0 213 0 C214.14972114 28.74302848 214.14972114 28.74302848 214.38891602 39.58007812 C214.41832275 40.83460281 214.44772949 42.0891275 214.47802734 43.38166809 C214.55609013 46.73610576 214.63226283 50.09057322 214.70718122 53.44508171 C214.7547758 55.5700733 214.80300115 57.6950497 214.85142326 59.82002258 C215.02224237 67.31730341 215.19080805 74.81463087 215.35717773 82.31201172 C215.49252034 88.40877094 215.63127875 94.50544106 215.77319336 100.60205078 C216.55161668 134.07405778 217.18548783 167.5154144 217 201 C200.5 201 184 201 167 201 C166.38379521 190.52451849 165.8472037 180.21458346 165.81054688 169.74780273 C165.7978167 167.73232367 165.78508628 165.7168446 165.7723465 163.70136559 C165.75975532 161.57417934 165.74936143 159.44699298 165.73963928 157.31979179 C165.71907503 152.8487446 165.69147764 148.37775613 165.66296387 143.90675354 C165.59834355 133.61319628 165.54256723 123.319595 165.48697662 113.02598572 C165.43584744 103.57447718 165.3827528 94.12299011 165.32245111 84.67153507 C165.29446051 80.24449124 165.27074297 75.81745324 165.25052643 71.39036739 C165.24024866 69.29234576 165.2278626 67.19434863 165.21458435 65.09634399 C165.19856149 62.56294148 165.18563069 60.02951619 165.17677307 57.49607849 C165.11249171 48.63494841 164.62393226 39.83578495 164 31 C163.84115609 31.85790792 163.68231218 32.71581583 163.51865482 33.59972095 C159.65692875 54.45588618 155.79284331 75.31161305 151.9261179 96.166852 C150.05627149 106.25221421 148.18722962 116.33772428 146.32006836 126.42358398 C144.69301674 135.21243022 143.0644692 144.00099769 141.43411011 152.789231 C140.57057151 157.44431415 139.70779255 162.09953525 138.84680367 166.75509071 C138.03690038 171.13428313 137.2250021 175.51310089 136.41155243 179.89163589 C136.1128968 181.50118106 135.81497894 183.11086332 135.51784325 184.72068977 C135.11291219 186.91392147 134.70536051 189.10665023 134.2971344 191.29927063 C134.06945153 192.52802068 133.84176867 193.75677073 133.60718632 195.02275562 C133 198 133 198 132 201 C115.17 201 98.34 201 81 201 C77.62511141 186.37548276 77.62511141 186.37548276 76.58970642 180.75798035 C76.35287643 179.48113373 76.11604645 178.20428711 75.87203979 176.88874817 C75.62159253 175.52243968 75.3711975 174.15612162 75.12084961 172.78979492 C74.84804844 171.31314462 74.57498458 169.83654284 74.30168152 168.35998535 C73.71895341 165.20877482 73.13799377 162.05724554 72.55845451 158.90544701 C71.64085603 153.91549624 70.71886825 148.9263624 69.79627991 143.93733215 C68.00605607 134.25326314 66.21994101 124.56843879 64.43451691 114.88348389 C62.15854305 102.53784984 59.88151524 90.19241277 57.59908873 77.84796983 C56.68327037 72.89392508 55.76993709 67.93943075 54.85856044 62.98456705 C54.29080564 59.90064174 53.7209641 56.81710463 53.15057564 53.73366547 C52.88767561 52.31006576 52.62563648 50.88630674 52.36454773 49.46237373 C51.10263598 42.58247222 49.81136087 35.75820199 48 29 C47.99576806 29.6798741 47.99153612 30.35974819 47.98717594 31.06022453 C47.88283382 47.77927542 47.77406526 64.49829148 47.66066074 81.21728325 C47.60591551 89.30320939 47.55254581 97.38913979 47.50268555 105.47509766 C47.45910794 112.5415676 47.41267373 119.60801271 47.36312145 126.67444336 C47.33709507 130.39900018 47.31228548 134.12355397 47.29092598 137.84814072 C47.16889355 158.91459529 46.67841622 179.94253984 46 201 C29.5 201 13 201 -4 201 C-4.19263791 165.54624849 -3.51158073 130.13725137 -2.72039545 94.69568002 C-2.57820904 88.31046446 -2.44156908 81.92513946 -2.30632645 75.53977352 C-2.15749834 68.5173639 -2.00527414 61.4950319 -1.85142326 54.47273064 C-1.78704284 51.53269429 -1.72371946 48.59263827 -1.66131783 45.65255928 C-1.57400716 41.54897115 -1.481681 37.44550947 -1.38891602 33.34204102 C-1.36445908 32.16723175 -1.34000214 30.99242249 -1.31480408 29.78201294 C-1.08315491 19.83095912 -0.52395861 9.95521352 0 0 Z " fill="#FFFFFF" transform="translate(485,110)"/>
<path d="M0 0 C24.42 0 48.84 0 74 0 C75.8179651 4.84790692 77.5037082 9.44354057 78.93505859 14.375 C79.46481041 16.1915509 79.46481041 16.1915509 80.00526428 18.0447998 C80.38637097 19.36318572 80.76742703 20.68158627 81.1484375 22 C81.55766089 23.40734775 81.96716883 24.81461278 82.37693787 26.22180176 C83.25459827 29.23792719 84.13034071 32.25460017 85.00454712 35.27172852 C86.38636493 40.04074359 87.77229983 44.80855576 89.15893555 49.57617188 C90.60859408 54.561271 92.05791223 59.54646809 93.50572205 64.53210449 C97.01529487 76.61750604 100.53381862 88.70027378 104.05859375 100.78125 C104.30264198 101.61772064 104.54669022 102.45419128 104.79813385 103.31600952 C106.00041036 107.43662057 107.20283312 111.55718893 108.40533447 115.67773438 C110.44811228 122.67782732 112.48969806 129.67826794 114.5313282 136.67869568 C115.4893438 139.96354536 116.44743317 143.24837351 117.40551758 146.53320312 C117.93701172 148.35546875 118.46850586 150.17773438 119 152 C118.85444002 140.72916312 118.70858185 129.45833012 118.5625 118.1875 C118.55147877 117.33715305 118.54045753 116.48680611 118.52910233 115.61069107 C118.17076306 87.96955318 117.8068115 60.32849345 117.4375 32.6875 C117.4208473 31.44111567 117.4208473 31.44111567 117.40385818 30.16955185 C117.26947387 20.11303141 117.13477508 10.05651522 117 0 C133.5 0 150 0 167 0 C167 65.67 167 131.34 167 199 C143.57 199 120.14 199 96 199 C92.624559 189.998824 92.624559 189.998824 91.21679688 185.40014648 C90.73747711 183.84062759 90.73747711 183.84062759 90.24847412 182.24960327 C89.73876068 180.57724106 89.73876068 180.57724106 89.21875 178.87109375 C88.85267639 177.67674713 88.48660278 176.48240051 88.10943604 175.25186157 C87.11165746 171.99385762 86.11624988 168.73514894 85.12211609 165.47603226 C84.49725902 163.42851843 83.87141923 161.38130761 83.24523926 159.334198 C74.78508352 131.67559105 66.43259807 103.98465737 58.10083008 76.28715515 C54.75868089 65.18388044 51.38540773 54.09015354 48 43 C47.8832489 71.34716605 48.01519074 99.67415436 48.57147217 128.01647949 C49.0317721 151.68393258 49.07636419 175.32710173 49 199 C32.83 199 16.66 199 0 199 C0 133.33 0 67.66 0 0 Z " fill="#FFFFFF" transform="translate(1133,110)"/>
<path d="M0 0 C16.83 0 33.66 0 51 0 C51.01458252 4.62322266 51.02916504 9.24644531 51.04418945 14.00976562 C51.09451488 29.28085213 51.16095641 44.55183705 51.23571491 59.82282257 C51.28064937 69.08206544 51.32006947 78.34127004 51.34643555 87.60058594 C51.36943465 95.67253546 51.40285406 103.74436367 51.44870156 111.81621695 C51.472608 116.08882532 51.49135366 120.36131373 51.49761391 124.63398743 C51.50367645 128.65923723 51.52371834 132.6841802 51.55427551 136.70931625 C51.56303703 138.18303672 51.56678223 139.65679731 51.56500816 141.13054276 C51.23317566 153.07022776 51.23317566 153.07022776 56.31007862 163.50714874 C60.21544688 167.06271775 64.065377 168.96106636 69.35546875 169.03125 C75.24172755 168.67504674 79.3266204 167.64523609 84 164 C88.93799167 156.6872149 88.57793308 149.28037466 88.54589844 140.77148438 C88.55464298 139.2333675 88.56513183 137.69525972 88.57722473 136.15716553 C88.60499771 132.00067411 88.60849135 127.8444808 88.60750484 123.68791008 C88.61064146 119.33699808 88.63627522 114.98621886 88.65948486 110.63537598 C88.69999117 102.40497332 88.72037293 94.1746498 88.73345876 85.94416285 C88.74934702 76.57044517 88.78777033 67.1968618 88.82805204 57.82322216 C88.91037758 38.54883327 88.96154112 19.27452978 89 0 C105.83 0 122.66 0 140 0 C140.17634353 18.98585507 140.34363817 37.97172133 140.49477577 56.95779228 C140.56525 65.77514574 140.63965963 74.59243188 140.72363281 83.40966797 C140.79689095 91.10290088 140.86246069 98.79615622 140.91914403 106.48952973 C140.94936228 110.55571494 140.98319479 114.62179132 141.02626419 118.6878624 C141.59228004 172.91104193 141.59228004 172.91104193 126.26171875 189.9296875 C113.7617243 201.97465004 94.89479278 206.45347365 78 207 C76.88753906 207.03996094 75.77507812 207.07992187 74.62890625 207.12109375 C52.1153453 207.52609961 30.3746093 204.60065854 13.1875 188.8125 C0.73211006 175.59953715 -0.4755163 158.14005156 -0.34057617 140.88500977 C-0.3397273 139.33601905 -0.34021011 137.78702713 -0.34190369 136.23803711 C-0.34275492 132.08398993 -0.32527281 127.93020933 -0.30418181 123.77622342 C-0.28526735 119.41609167 -0.28365305 115.05595198 -0.28010559 110.69578552 C-0.27082809 102.46201454 -0.24627328 94.22836485 -0.21605712 85.99464697 C-0.18237837 76.61118164 -0.16599342 67.22771014 -0.15097082 57.8441993 C-0.11971923 38.56271706 -0.06476175 19.28140082 0 0 Z " fill="#FFFFFF" transform="translate(938,110)"/>
<path d="M0 0 C8.93183299 8.65362836 13.47827757 19.55716543 15.5 31.6875 C15.5 39.2775 15.5 46.8675 15.5 54.6875 C-1.33 54.6875 -18.16 54.6875 -35.5 54.6875 C-35.83 48.4175 -36.16 42.1475 -36.5 35.6875 C-39.62620561 28.39302023 -41.54029749 25.36275875 -48.75 22.3125 C-56.65267299 20.99538783 -62.96819608 22.02192577 -69.5 26.6875 C-74.45257887 31.64007887 -74.72902818 38.52151372 -74.78216553 45.14411926 C-74.77968811 46.08978256 -74.77721069 47.03544586 -74.7746582 48.00976562 C-74.77976913 49.02366867 -74.78488007 50.03757172 -74.79014587 51.0821991 C-74.80399762 54.41944348 -74.80308866 57.75648036 -74.80078125 61.09375 C-74.80467008 63.42110266 -74.80900514 65.74845462 -74.81376648 68.07580566 C-74.82121881 72.94785872 -74.82094416 77.8198393 -74.81567383 82.69189453 C-74.809875 88.92950005 -74.82682523 95.16680905 -74.8500185 101.40436554 C-74.86476105 106.20853403 -74.86562691 111.01263114 -74.86250877 115.81681824 C-74.86302154 118.11647632 -74.86825081 120.41613844 -74.87832069 122.71577454 C-74.89068006 125.93245658 -74.88389643 129.14856132 -74.87231445 132.36523438 C-74.87995819 133.31089767 -74.88760193 134.25656097 -74.89547729 135.23088074 C-74.83911293 142.32627639 -73.88373573 147.24958846 -68.75 152.5 C-62.6671687 156.59421337 -57.35479977 157.12685073 -50.22265625 156.29296875 C-44.84758735 155.09765214 -40.96809593 152.5344594 -37.5625 148.25 C-35.4087423 143.0556432 -35.33936021 137.66465021 -35.18359375 132.1015625 C-35.1524221 131.04888687 -35.1524221 131.04888687 -35.12062073 129.97494507 C-35.05573676 127.75422042 -34.9965277 125.53338724 -34.9375 123.3125 C-34.89425646 121.79816629 -34.8506404 120.28384317 -34.80664062 118.76953125 C-34.69942443 115.07562993 -34.59989894 111.38163531 -34.5 107.6875 C-41.43 107.6875 -48.36 107.6875 -55.5 107.6875 C-55.5 97.4575 -55.5 87.2275 -55.5 76.6875 C-32.07 76.6875 -8.64 76.6875 15.5 76.6875 C15.561875 88.155 15.62375 99.6225 15.6875 111.4375 C15.72846802 116.83367676 15.72846802 116.83367676 15.77026367 122.33886719 C15.78381348 126.79150391 15.78381348 126.79150391 15.78633118 128.88751221 C15.79088525 130.32618 15.80132464 131.76483762 15.81672668 133.20343018 C15.98320829 149.59790438 13.39997543 164.26140249 1.7890625 176.58984375 C-14.90777209 191.89052664 -38.31287364 195.28076978 -60.13720703 194.60595703 C-80.17864155 193.60881622 -100.36848265 189.0211313 -114.5 173.6875 C-127.87915381 157.20862145 -126.66045379 135.89724734 -126.66796875 115.8671875 C-126.67118943 113.83855161 -126.67455408 111.80991594 -126.67805481 109.78128052 C-126.68401944 105.54005394 -126.68589752 101.29884766 -126.68530273 97.05761719 C-126.6852014 91.66865099 -126.69883628 86.27981738 -126.71607494 80.89088249 C-126.72728896 76.70225446 -126.72921906 72.51365751 -126.72869301 68.32501602 C-126.72985968 66.34064402 -126.734206 64.35627085 -126.74202538 62.37191391 C-126.89973388 18.20958737 -126.89973388 18.20958737 -111.5 1.6875 C-108.02030264 -1.32045997 -104.40338539 -3.88513626 -100.5 -6.3125 C-99.84386719 -6.72113281 -99.18773437 -7.12976563 -98.51171875 -7.55078125 C-71.15401488 -22.72346927 -24.15244629 -20.34268542 0 0 Z " fill="#FFFFFF" transform="translate(1477.5,120.3125)"/>
<path d="M0 0 C2.19183419 0.00315512 4.38230637 -0.02037809 6.57397461 -0.0456543 C25.00351843 -0.12879257 43.49693541 3.49775701 57.54858398 16.27661133 C71.22963289 30.41709844 69.39233398 45.99884311 69.39233398 65.31567383 C52.89233398 65.31567383 36.39233398 65.31567383 19.39233398 65.31567383 C18.89733398 57.89067383 18.89733398 57.89067383 18.39233398 50.31567383 C17.21446283 45.42750853 16.50374771 42.67020931 13.39233398 38.87817383 C7.3623243 35.73754378 1.05546491 34.44411935 -5.54516602 36.44067383 C-9.72357031 38.13441985 -12.32213731 40.2027321 -14.68188477 44.08129883 C-17.02746892 49.74237113 -16.29102946 56.45195535 -14.23266602 62.06567383 C-8.6129904 70.20054327 1.15676578 75.14353137 9.70483398 79.56567383 C11.82292861 80.69026907 13.9400986 81.81660732 16.05639648 82.94458008 C17.11375 83.5054834 18.17110352 84.06638672 19.26049805 84.64428711 C32.3370899 91.6229547 45.11719919 98.61342861 56.39233398 108.31567383 C57.15674805 108.96793945 57.92116211 109.62020508 58.70874023 110.29223633 C69.29101101 120.05121849 74.04916139 132.2939823 74.66967773 146.46801758 C75.15026922 165.11170898 73.61724887 182.81414831 60.39233398 197.12817383 C41.04912847 215.29351162 14.27639206 215.15717498 -10.58374023 214.49926758 C-18.2525313 214.21301018 -25.34894132 212.74318176 -32.60766602 210.31567383 C-33.7355957 209.9418457 -34.86352539 209.56801758 -36.02563477 209.18286133 C-42.83067895 206.62991308 -48.19186302 203.12390125 -53.60766602 198.31567383 C-54.52999023 197.56737305 -54.52999023 197.56737305 -55.47094727 196.80395508 C-62.96452995 190.20760846 -68.25075452 179.13173235 -69.60766602 169.31567383 C-69.83551197 164.31144753 -69.79593774 159.32365856 -69.73266602 154.31567383 C-69.69141602 149.69567383 -69.65016602 145.07567383 -69.60766602 140.31567383 C-51.78766602 140.31567383 -33.96766602 140.31567383 -15.60766602 140.31567383 C-15.11266602 152.69067383 -15.11266602 152.69067383 -14.60766602 165.31567383 C-10.32095866 173.09474552 -10.32095866 173.09474552 -3.60766602 176.31567383 C3.63580708 177.85936482 9.29502828 176.77249364 16.20483398 174.31567383 C20.7839162 170.12908437 22.58562737 163.78250172 22.89233398 157.69067383 C22.67238934 152.91110756 20.77237646 149.37216959 18.39233398 145.31567383 C18.10100586 144.62086914 17.80967773 143.92606445 17.50952148 143.21020508 C16.10031587 140.82046829 14.86394237 140.54217613 12.39233398 139.31567383 C10.73369093 138.11711896 9.09346301 136.89289836 7.46655273 135.65161133 C1.34213752 131.14743865 -5.10980386 127.53777721 -11.79516602 123.94067383 C-59.52194943 97.85044476 -59.52194943 97.85044476 -67.60766602 73.31567383 C-71.13158063 57.87870551 -69.54598806 39.76336747 -61.85766602 25.87817383 C-52.98631886 12.54908507 -39.60518183 5.15964761 -24.15185547 1.77832031 C-16.10308108 0.23898964 -8.16322343 -0.02446521 0 0 Z " fill="#FFFFFF" transform="translate(173.607666015625,103.684326171875)"/>
<path d="M0 0 C29.37 0 58.74 0 89 0 C90.56443885 4.69331654 91.69832615 9.1155776 92.56924438 13.94570923 C92.71387757 14.72797202 92.85851075 15.5102348 93.00752676 16.31620252 C93.48913779 18.9270186 93.96453716 21.53892608 94.43994141 24.15087891 C94.78469606 26.02709016 95.12982372 27.9032329 95.47529602 29.77931213 C96.4110132 34.86717015 97.34124725 39.95601651 98.27030611 45.04509401 C99.24320439 50.37018852 100.22048365 55.69447916 101.19711304 61.01889038 C102.83598101 69.9576708 104.47128706 78.89709737 106.10449219 87.83691406 C107.99360256 98.17725076 109.88835593 108.51654132 111.78612578 118.85529196 C113.61119425 128.7987157 115.43226299 138.74286793 117.25150681 148.68735886 C118.02611273 152.92116503 118.80212895 157.15470913 119.57927322 161.38805008 C120.49359723 166.3696637 121.40442552 171.35190398 122.31253624 176.33465385 C122.64671399 178.16506994 122.98210264 179.99526542 123.31877708 181.82522392 C123.77737108 184.31898348 124.23160768 186.8134981 124.6847229 189.30825806 C124.81954185 190.0356851 124.9543608 190.76311214 125.09326518 191.51258242 C125.67881265 194.76134389 126 197.68130268 126 201 C108.18 201 90.36 201 72 201 C70.77675895 195.49541529 69.6610317 190.26354996 68.85508728 184.72528076 C68.75607874 184.05141618 68.6570702 183.3775516 68.5550614 182.68326688 C68.22876619 180.45693825 67.90722039 178.22995151 67.58569336 176.00292969 C67.35086262 174.39392913 67.11573176 172.78497234 66.88032532 171.17605591 C66.37638873 167.72736134 65.87455995 164.27836918 65.374403 160.82912445 C64.5833958 155.37413929 63.78767332 149.91984822 62.99134827 144.46563721 C61.73276511 135.84139592 60.47736991 127.21669408 59.2233215 118.59179235 C56.97597763 103.13589567 54.72376734 87.68070803 52.46953875 72.2258141 C51.67886936 66.80408123 50.88978207 61.3821211 50.10199916 55.95996809 C49.6121714 52.59010887 49.12128769 49.22040405 48.63015556 45.85073471 C48.40273176 44.28871528 48.17576801 42.72662879 47.94929886 41.16447067 C47.64005723 39.03172972 47.32918768 36.89923205 47.01792908 34.76678467 C46.75773184 32.97714357 46.75773184 32.97714357 46.4922781 31.15134811 C46.06474018 28.41443816 45.56944183 25.71042547 45 23 C44.86692475 23.89306225 44.73384951 24.7861245 44.59674168 25.70624924 C41.36070811 47.42220274 38.12250413 69.13783161 34.88187504 90.85309982 C33.31479364 101.35438142 31.74845085 111.85577219 30.18383789 122.35742188 C28.82034597 131.50913853 27.45547735 140.6606486 26.08894533 149.81191182 C25.36522468 154.65878724 24.6422005 159.50576428 23.92082405 164.3529892 C23.24209686 168.91348697 22.561532 173.47370668 21.87954521 178.03371811 C21.62932742 179.70899442 21.37978624 181.38437194 21.13096619 183.05985641 C20.79156426 185.3446028 20.44974613 187.62897499 20.10731506 189.91326904 C19.91650392 191.1927177 19.72569277 192.47216637 19.52909946 193.7903862 C19 197 19 197 18 201 C-0.15 201 -18.3 201 -37 201 C-33.4834832 179.52274362 -29.70024165 158.11426893 -25.73588133 136.71635628 C-24.94419862 132.44056845 -24.155255 128.164275 -23.36587524 123.88806152 C-22.04490385 116.73444201 -20.72184965 109.58121024 -19.39746094 102.42822266 C-17.87397959 94.19980374 -16.35382949 85.9707746 -14.83542001 77.74141836 C-13.35988513 69.74483385 -11.88207202 61.74867198 -10.40321732 53.75270081 C-9.77976951 50.38160806 -9.15708505 47.01037572 -8.53504562 43.63902283 C-7.80303616 39.67225077 -7.06900698 35.70585736 -6.333498 31.73973274 C-6.06638179 30.29763861 -5.79991976 28.8554231 -5.53421211 27.41306877 C-5.16736874 25.42237242 -4.79775519 23.43218718 -4.42807007 21.4420166 C-4.22347357 20.33611427 -4.01887707 19.23021194 -3.80808067 18.09079742 C-2.61385681 12.04520312 -1.29120558 6.02562605 0 0 Z " fill="#FFFFFF" transform="translate(316,110)"/>
<path d="M0 0 C2.04701376 0.00315485 4.09256814 -0.02038471 6.1394043 -0.0456543 C24.961641 -0.13623264 43.3545449 3.75439044 57.21166992 17.22583008 C69.7850973 30.59672642 68.24682617 46.20337683 68.24682617 64.31567383 C51.74682617 64.31567383 35.24682617 64.31567383 18.24682617 64.31567383 C17.91682617 58.70567383 17.58682617 53.09567383 17.24682617 47.31567383 C15.59000533 42.70024433 14.5777849 40.34716684 10.74682617 37.37817383 C5.33855892 35.07966025 -0.19557044 34.18781044 -5.90942383 35.99926758 C-10.6911329 38.14925244 -13.66373635 40.35325983 -15.75317383 45.31567383 C-16.4597817 51.09366528 -16.64117073 56.3176808 -14.25317383 61.69067383 C-8.16280563 68.08556044 -1.72789181 72.81864088 5.99682617 77.06567383 C7.36013062 77.83210205 7.36013062 77.83210205 8.75097656 78.61401367 C13.33380976 81.18179295 17.943155 83.69733784 22.57104492 86.18286133 C42.50574987 96.91054752 63.57463017 109.02468512 71.52026367 131.47973633 C75.9898676 148.92560974 74.66511093 171.53097031 65.59448242 187.16333008 C56.11300888 201.25950853 41.51993684 208.09586049 25.24682617 211.31567383 C18.30306815 212.44385034 11.45691788 212.53714348 4.44360352 212.5559082 C2.27995029 212.56552658 0.11728506 212.59656932 -2.04614258 212.62817383 C-22.67905877 212.78546228 -41.45683391 207.79326993 -57.00317383 193.62817383 C-71.16857857 178.77596158 -69.75317383 158.75875583 -69.75317383 139.31567383 C-51.93317383 139.31567383 -34.11317383 139.31567383 -15.75317383 139.31567383 C-15.25817383 151.69067383 -15.25817383 151.69067383 -14.75317383 164.31567383 C-13.26817383 166.79067383 -13.26817383 166.79067383 -11.75317383 169.31567383 C-11.75317383 169.97567383 -11.75317383 170.63567383 -11.75317383 171.31567383 C-10.09332584 171.99914065 -8.42480578 172.66155698 -6.75317383 173.31567383 C-5.36098633 173.87254883 -5.36098633 173.87254883 -3.94067383 174.44067383 C3.35831004 176.44431646 8.52180871 175.19356378 15.24682617 172.31567383 C16.23682617 171.98567383 17.22682617 171.65567383 18.24682617 171.31567383 C19.4307384 168.93942038 19.4307384 168.93942038 20.24682617 166.31567383 C20.57682617 165.32567383 20.90682617 164.33567383 21.24682617 163.31567383 C21.8862859 155.55829356 22.12510181 149.56987336 17.24682617 143.31567383 C16.83045898 142.78071289 16.4140918 142.24575195 15.98510742 141.69458008 C7.15500935 131.65932427 -7.01754062 125.56818707 -18.50317383 119.19067383 C-35.17288069 109.93246874 -35.17288069 109.93246874 -42.75317383 104.31567383 C-43.68774414 103.62473633 -44.62231445 102.93379883 -45.58520508 102.22192383 C-58.01478068 92.56392254 -66.72572568 81.29196522 -68.75317383 65.31567383 C-69.71518352 48.46200404 -67.82894619 32.44909239 -56.62817383 19.12817383 C-41.71340931 3.47748343 -20.76251539 -0.06657023 0 0 Z " fill="#FFFFFF" transform="translate(819.753173828125,104.684326171875)"/>
</svg>
