<?xml version="1.0" encoding="UTF-8"?>
<svg version="1.1" xmlns="http://www.w3.org/2000/svg" width="1920" height="1080">
<path d="M0 0 C3.62522733 -0.00282016 7.25044374 -0.00834039 10.87566757 -0.01401138 C50.10771298 -0.05848832 89.26482866 0.85752107 128.37997055 4.05962753 C129.92521408 4.18367966 129.92521408 4.18367966 131.50167465 4.31023788 C210.20698775 10.68709389 294.37628642 21.3344785 366.19247055 56.30962753 C367.12333481 56.76208847 368.05419907 57.21454941 369.01327133 57.68072128 C399.94378439 72.88080028 431.46447029 94.27995748 443.19247055 128.30962753 C445.18293849 134.540294 446.79505338 140.75826572 447.19247055 147.30962753 C447.24532211 148.15525253 447.29817368 149.00087753 447.3526268 149.87212753 C448.43901097 184.6364211 428.07648634 215.48813732 405.25497055 239.93462753 C402.91640205 242.40822981 400.55876941 244.86256762 398.19247055 247.30962753 C397.65944321 247.86456894 397.12641586 248.41951035 396.57723618 248.99126816 C390.70172915 255.08793605 384.65056738 260.78003218 378.0088768 266.05181503 C375.54386099 268.02793035 373.14829636 270.06430313 370.76473618 272.13726425 C330.9092634 306.60853496 282.86652531 332.54334766 236.19247055 356.30962753 C235.16959946 356.83202011 234.14672836 357.35441269 233.09286118 357.89263535 C230.27490235 359.32933239 227.4535406 360.75899513 224.62997055 362.18462753 C223.79683334 362.6077623 222.96369614 363.03089706 222.10531235 363.4668541 C216.42762846 366.30962753 216.42762846 366.30962753 214.19247055 366.30962753 C214.19247055 367.29962753 214.19247055 368.28962753 214.19247055 369.30962753 C213.63269516 369.41194687 213.07291977 369.5142662 212.49618149 369.61968613 C206.99714327 370.71833608 202.41990103 372.39971198 197.44247055 374.93462753 C108.78007071 418.21408429 12.42193438 448.85640688 -576.80752945 565.30962753 C-577.83396561 565.39966049 -578.86040176 565.48969345 -579.91794205 565.58245468 C-605.52310027 567.81332609 -631.14357603 569.59826395 -656.80752945 570.99712753 C-658.47918167 571.0883992 -658.47918167 571.0883992 -660.18460464 571.18151474 C-684.62607729 572.50045591 -709.06916007 573.3836699 -733.54239273 573.81231308 C-736.93944262 573.87224951 -740.33636628 573.93737022 -743.7333107 574.00298691 C-766.1389545 574.42038193 -788.52837002 574.43305966 -810.93252945 573.93462753 C-811.90965897 573.91317673 -812.88678848 573.89172592 -813.89352798 573.86962509 C-898.31034464 571.9654096 -984.40091308 565.05105444 -1168.80752945 498.30962753 C-1169.97542007 497.4549791 -1169.97542007 497.4549791 -1171.16690445 496.58306503 C-1177.01721645 492.1650708 -1182.44339178 487.30031258 -1187.80752945 482.30962753 C-1188.56034195 481.63415878 -1189.31315445 480.95869003 -1190.08877945 480.26275253 C-1205.63228312 465.7044005 -1215.51226018 445.12369863 -1216.21011734 423.82818222 C-1216.43307261 406.54681012 -1212.42728136 391.71468343 -1204.80752945 376.30962753 C-1204.35764664 375.37119003 -1203.90776382 374.43275253 -1203.4442482 373.46587753 C-1189.78757704 346.71652754 -1166.32481308 322.50575363 -1142.80752945 304.30962753 C-1140.97080618 302.75111382 -1139.13769988 301.18833108 -1137.30752945 299.62212753 C-1112.46011174 278.97917109 -1084.70994393 261.48419952 -1056.80752945 245.30962753 C-1055.86957535 244.7629039 -1054.93162125 244.21618027 -1053.96524429 243.65288925 C-1038.99673902 234.95451583 -1023.70047899 226.92311942 -1008.27481461 219.07476425 C-1006.08521597 217.96007631 -1003.89717481 216.84231885 -1001.71133804 215.72027206 C-918.27521132 172.89427951 -828.13372954 140.20978135 -733.43753433 112.08581161 C-730.63145342 111.25766284 -727.82644877 110.42592172 -725.02139664 109.5942955 C-677.33020624 95.48395644 -629.25311012 82.57690425 -580.80752945 71.30962753 C-579.86927322 71.09129257 -578.931017 70.87295761 -577.96432877 70.64800644 C-492.46686338 50.80789363 -406.0260201 34.80748852 -124.83385086 3.43759537 C-122.84334185 3.31188919 -120.85296097 3.18415944 -118.86258316 3.05639267 C-79.2538187 0.53755331 -39.68334011 0.02818232 0 0 Z " fill="#0B2089" transform="translate(1344.807529449463,201.69037246704102)"/>
<path d="M0 0 C21.45 0 42.9 0 65 0 C67.25008336 9.00033344 67.25008336 9.00033344 67.9296875 13.19995117 C68.08324707 14.13840378 68.23680664 15.07685638 68.39501953 16.04374695 C68.55341309 17.03349014 68.71180664 18.02323334 68.875 19.04296875 C69.12999268 20.61115105 69.12999268 20.61115105 69.39013672 22.21101379 C69.92993954 25.53600277 70.46498091 28.86173831 71 32.1875 C71.35907493 34.40174139 71.71844725 36.61593458 72.078125 38.83007812 C73.76189743 49.21343863 75.43360779 59.59817675 77 70 C78.83493233 68.16506767 78.65435404 65.24456474 79.015625 62.76782227 C79.11170044 62.1173996 79.20777588 61.46697693 79.3067627 60.79684448 C79.51540007 59.38059221 79.72210187 57.96405378 79.92712402 56.54727364 C80.2513407 54.30714284 80.58056454 52.06779973 80.91113281 49.82859802 C81.61206462 45.07390725 82.30625468 40.31824377 83 35.5625 C83.80379236 30.05679951 84.61030519 24.55151617 85.42224121 19.04701042 C85.74695394 16.83713663 86.06742071 14.62667369 86.38769531 12.41615295 C86.58639537 11.06459764 86.78527864 9.71306925 86.984375 8.36157227 C87.24299316 6.5873867 87.24299316 6.5873867 87.50683594 4.77735901 C88 2 88 2 89 0 C110.45 0 131.9 0 154 0 C154 54.12 154 108.24 154 164 C139.48 164 124.96 164 110 164 C109.67 131 109.34 98 109 64 C106.03 84.295 106.03 84.295 103 105 C100.875 117.875 100.875 117.875 99.9375 123.3359375 C98.61175753 131.1752325 97.50075133 139.04858927 96.39404297 146.92138672 C96.24080566 147.9888916 96.08756836 149.05639648 95.9296875 150.15625 C95.79804199 151.09275391 95.66639648 152.02925781 95.53076172 152.99414062 C94.87619318 156.70115433 93.91299155 160.34803381 93 164 C82.77 164 72.54 164 62 164 C58.0540117 145.22666173 54.86992378 126.39659789 51.84375 107.45703125 C49.61842586 93.62890474 47.30257876 79.81547254 45 66 C44.67 98.34 44.34 130.68 44 164 C29.48 164 14.96 164 0 164 C0 109.88 0 55.76 0 0 Z " fill="#FEFEFE" transform="translate(709,407)"/>
<path d="M0 0 C16.83 0 33.66 0 51 0 C51.029729 6.16405518 51.029729 6.16405518 51.06005859 12.45263672 C51.12683555 25.9994715 51.20437556 39.5462265 51.28752708 53.09296989 C51.33769842 61.30984501 51.38414071 69.52670992 51.421875 77.74365234 C51.4547647 84.90360337 51.49457897 92.06347624 51.54279006 99.22334111 C51.56808527 103.01618891 51.58985748 106.80898467 51.60334396 110.60189438 C51.6161371 114.1690844 51.63816128 117.7360962 51.66738319 121.30318832 C51.68083095 123.24223153 51.68438578 125.18133536 51.68769836 127.12042236 C51.69886185 128.26749664 51.71002533 129.41457092 51.7215271 130.59640503 C51.72705786 131.59747221 51.73258862 132.59853939 51.73828697 133.62994194 C51.77072844 136.18754469 51.77072844 136.18754469 54 138 C56.97 138 59.94 138 63 138 C63.33 92.46 63.66 46.92 64 0 C80.83 0 97.66 0 115 0 C115.06792393 16.44734397 115.12310161 32.89456677 115.15543652 49.34201241 C115.17085441 56.98017552 115.19184578 64.6182448 115.22631836 72.25634766 C115.25637733 78.91974674 115.27561183 85.5830778 115.28226548 92.24654281 C115.28615006 95.76934799 115.29517095 99.29195871 115.31719017 102.81470108 C115.34166773 106.7633838 115.34195952 110.71188254 115.34057617 114.66064453 C115.351362 115.8072052 115.36214783 116.95376587 115.3732605 118.1350708 C115.32266774 131.58384839 113.3256222 143.14601909 103.99609375 153.1484375 C98.64680494 158.29676912 92.95990594 161.49088741 86 164 C85.32799561 164.26039063 84.65599121 164.52078125 83.96362305 164.7890625 C76.91051548 167.258345 70.14495975 167.46111328 62.71508789 167.39111328 C60.70063708 167.3751044 58.68821633 167.39099733 56.67382812 167.41015625 C39.99353854 167.36097604 22.9216108 163.97533794 10.8359375 151.82421875 C-3.93392937 135.84590823 -0.13966013 112.74251755 -0.09765625 92.3828125 C-0.09578833 89.71239133 -0.09431691 87.04197286 -0.09336853 84.37155151 C-0.09028107 78.09629984 -0.08210313 71.82106593 -0.07201904 65.54582202 C-0.06077686 58.39206885 -0.05532718 51.23831475 -0.05032361 44.08455491 C-0.03991786 29.389693 -0.02160519 14.6948501 0 0 Z " fill="#FBFCFD" transform="translate(1093,407)"/>
<path d="M0 0 C13.86 0 27.72 0 42 0 C44.45354635 5.52047928 46.77989559 10.86570791 48.875 16.5 C49.12693115 17.17579102 49.3788623 17.85158203 49.63842773 18.54785156 C51.50891513 23.59381757 53.29192528 28.66830215 55.0625 33.75 C56.74764297 38.58215562 58.5031003 43.34777515 60.5 48.0625 C63.54322885 55.29016852 66.24641229 62.65709943 69 70 C69.33 46.9 69.66 23.8 70 0 C83.86 0 97.72 0 112 0 C112 54.12 112 108.24 112 164 C97.15 164 82.3 164 67 164 C61.00720146 147.17406563 55.0439856 130.3440232 49.26220703 113.44458008 C48.87661621 112.31947021 48.49102539 111.19436035 48.09375 110.03515625 C47.76052734 109.0594165 47.42730469 108.08367676 47.08398438 107.07836914 C45.77677679 103.36607626 44.38192436 99.68513164 43 96 C42.67 118.44 42.34 140.88 42 164 C28.14 164 14.28 164 0 164 C0 109.88 0 55.76 0 0 Z " fill="#FDFDFE" transform="translate(1270,407)"/>
<path d="M0 0 C1.63485352 -0.01160156 1.63485352 -0.01160156 3.30273438 -0.0234375 C19.99131584 0.01622639 35.57139178 3.47854411 48.0625 15.25 C61.56366764 28.87012066 60.0625 45.67138399 60.0625 64.25 C43.2325 64.25 26.4025 64.25 9.0625 64.25 C8.6875 48.4375 8.6875 48.4375 8.58447266 43.45776367 C8.53105713 41.51994019 8.53105713 41.51994019 8.4765625 39.54296875 C8.46520264 38.86737915 8.45384277 38.19178955 8.44213867 37.49572754 C8.33053943 33.88354232 8.12355499 32.34158249 6.0625 29.25 C3.92996355 28.77312697 3.92996355 28.77312697 1.5625 28.875 C0.7684375 28.86726563 -0.025625 28.85953125 -0.84375 28.8515625 C-1.5346875 28.98304688 -2.225625 29.11453125 -2.9375 29.25 C-5.01415077 32.36497616 -5.18799159 33.03768994 -5.19146729 36.5700531 C-5.19992676 37.89279739 -5.19992676 37.89279739 -5.20855713 39.24226379 C-5.20450867 40.20702133 -5.20046021 41.17177887 -5.19628906 42.16577148 C-5.1997937 43.1839093 -5.20329834 44.20204712 -5.20690918 45.2510376 C-5.21572837 48.62445854 -5.20987616 51.99767059 -5.203125 55.37109375 C-5.2044717 57.7113499 -5.20641227 60.05160577 -5.20892334 62.39186096 C-5.21187495 67.30041157 -5.20757612 72.20888947 -5.19824219 77.11743164 C-5.18685399 83.41368373 -5.19340298 89.7097652 -5.20538712 96.00601101 C-5.21261005 100.84008573 -5.21031566 105.67411994 -5.20513153 110.50819588 C-5.20379591 112.82986534 -5.20543968 115.15153847 -5.21009064 117.47320366 C-5.2151622 120.71717971 -5.20743624 123.9608786 -5.19628906 127.20483398 C-5.20033752 128.16756729 -5.20438599 129.1303006 -5.20855713 130.12220764 C-5.20009766 131.44918167 -5.20009766 131.44918167 -5.19146729 132.80296326 C-5.19033621 133.95304698 -5.19033621 133.95304698 -5.18918228 135.12636471 C-5.00917235 137.67138759 -5.00917235 137.67138759 -2.9375 141.25 C0.6925 141.25 4.3225 141.25 8.0625 141.25 C10.44497914 133.65705834 10.50150227 126.16265337 10.6875 118.25 C10.72575652 116.88930002 10.76481248 115.52862226 10.8046875 114.16796875 C10.89847068 110.8621118 10.98417389 107.55625326 11.0625 104.25 C7.7625 104.25 4.4625 104.25 1.0625 104.25 C1.0625 96 1.0625 87.75 1.0625 79.25 C20.5325 79.25 40.0025 79.25 60.0625 79.25 C60.0625 108.29 60.0625 137.33 60.0625 167.25 C49.5025 167.25 38.9425 167.25 28.0625 167.25 C26.4125 163.95 24.7625 160.65 23.0625 157.25 C21.99 158.466875 20.9175 159.68375 19.8125 160.9375 C10.56292244 169.93147611 0.85552253 170.93022639 -11.56542969 170.77392578 C-18.64549273 170.52230874 -24.6603325 169.7229346 -30.9375 166.25 C-32.21753906 165.59644531 -32.21753906 165.59644531 -33.5234375 164.9296875 C-43.95309014 159.19807659 -50.97193478 151.54310886 -54.9375 140.25 C-55.43708638 137.62405575 -55.81965562 135.12862606 -56.0859375 132.48046875 C-56.16720886 131.68172333 -56.24848022 130.88297791 -56.33221436 130.06002808 C-57.45934748 117.24984499 -57.23659632 104.33970634 -57.19824219 91.49023438 C-57.18686874 87.65261092 -57.19360837 83.81526547 -57.20512009 79.9776516 C-57.33970033 27.17793895 -57.33970033 27.17793895 -46.75390625 15.90234375 C-33.0472596 3.4337168 -18.08281115 -0.12786902 0 0 Z " fill="#FCFCFD" transform="translate(1498.9375,403.75)"/>
<path d="M0 0 C24.75 0 49.5 0 75 0 C76.8043933 6.61610878 78.462957 12.76618235 79.46484375 19.46484375 C79.58297424 20.21661896 79.70110474 20.96839417 79.82281494 21.74295044 C80.07171917 23.32825722 80.31812179 24.91395866 80.56210327 26.50003052 C81.19895008 30.63510824 81.85597017 34.76694474 82.515625 38.8984375 C82.70785896 40.1034063 82.70785896 40.1034063 82.90397644 41.3327179 C83.98532799 48.04451157 85.26934076 54.7000808 86.66943359 61.35229492 C87.98907008 67.70226331 88.98666604 74.08005885 89.8737793 80.50415039 C90.67019364 86.17454703 91.6907295 91.78839538 92.76124573 97.4132843 C94.43587666 106.23786507 95.96096413 115.08846336 97.5 123.9375 C97.94636618 126.49862941 98.39302188 129.05970811 98.83984375 131.62075806 C99.13195837 133.2961154 99.42363172 134.97154974 99.71484375 136.64706421 C100.42779823 140.7447802 101.14883713 144.84077546 101.88671875 148.93408203 C102.02686401 149.71505753 102.16700928 150.49603302 102.31140137 151.30067444 C102.57589103 152.77180409 102.84245404 154.24256305 103.1114502 155.71287537 C103.61602015 158.52538485 104 161.13510446 104 164 C96.61271898 164.02526692 89.22544902 164.0428316 81.83813477 164.05493164 C79.32283105 164.05997363 76.80753028 164.06680703 74.29223633 164.07543945 C70.68570225 164.08751094 67.07920677 164.09322949 63.47265625 164.09765625 C61.77424339 164.10539818 61.77424339 164.10539818 60.04151917 164.11329651 C58.48001381 164.11340981 58.48001381 164.11340981 56.88696289 164.11352539 C55.96540909 164.115746 55.04385529 164.11796661 54.09437561 164.12025452 C52 164 52 164 51 163 C50.69030954 161.17231336 50.44096548 159.33437018 50.21557617 157.49438477 C50.0682756 156.30729416 49.92097504 155.12020355 49.76921082 153.8971405 C49.53347099 151.93905205 49.53347099 151.93905205 49.29296875 149.94140625 C49.12596673 148.57604469 48.95871027 147.21071422 48.79121399 145.84541321 C48.34280602 142.17718122 47.9008736 138.50819684 47.46084595 134.83895111 C47.1886927 132.5724329 46.91486959 130.30612199 46.640625 128.03985596 C43.70223117 103.72804638 41.08752821 79.40116819 39 55 C38.89510254 56.23858765 38.89510254 56.23858765 38.78808594 57.50219727 C35.75778453 93.06439195 31.98820104 128.53349789 28 164 C10.84 164 -6.32 164 -24 164 C-24 159.27255698 -23.89697048 155.48629857 -23.16479492 150.93798828 C-22.97967346 149.77002716 -22.794552 148.60206604 -22.6038208 147.39871216 C-22.39811462 146.13534027 -22.19240845 144.87196838 -21.98046875 143.5703125 C-21.76326912 142.2100377 -21.54662989 140.84967332 -21.33050537 139.48922729 C-20.86522304 136.56560333 -20.39692448 133.64248548 -19.92623901 130.71972656 C-18.66102763 122.85961348 -17.41724617 114.99608866 -16.171875 107.1328125 C-16.0425955 106.31759377 -15.913316 105.50237503 -15.78011894 104.6624527 C-12.86176924 86.25192837 -10.06448774 67.82362546 -7.29645157 49.3899765 C-6.93970382 47.01467353 -6.58250477 44.63943881 -6.22518921 42.26422119 C-5.55395238 37.80131546 -4.8840619 33.33820884 -4.21484375 28.875 C-4.01945007 27.57255341 -3.8240564 26.27010681 -3.6227417 24.92819214 C-3.34530121 23.07268234 -3.34530121 23.07268234 -3.06225586 21.1796875 C-2.90446152 20.12507324 -2.74666718 19.07045898 -2.58409119 17.98388672 C-1.70556351 11.99174918 -0.85647561 5.99532924 0 0 Z " fill="#FDFDFE" transform="translate(553,408)"/>
<path d="M0 0 C5.89380035 5.18454641 8.05104185 12.50546985 9.3046875 20.02734375 C9.3046875 26.95734375 9.3046875 33.88734375 9.3046875 41.02734375 C-6.2053125 41.02734375 -21.7153125 41.02734375 -37.6953125 41.02734375 C-38.1903125 30.63234375 -38.1903125 30.63234375 -38.6953125 20.02734375 C-39.3553125 19.03734375 -40.0153125 18.04734375 -40.6953125 17.02734375 C-42.79373619 16.55011903 -42.79373619 16.55011903 -45.1328125 16.65234375 C-45.91527344 16.64460938 -46.69773437 16.636875 -47.50390625 16.62890625 C-49.71031416 16.90020206 -49.71031416 16.90020206 -51.45703125 18.0625 C-53.39780532 21.14202478 -53.1277953 24.31742573 -53.0703125 27.83984375 C-53.08191406 28.53916016 -53.09351563 29.23847656 -53.10546875 29.95898438 C-53.07899184 34.6762873 -52.33048905 37.9773073 -49.6953125 42.02734375 C-47.78832036 43.80930864 -47.78832036 43.80930864 -45.3828125 45.15234375 C-44.41472656 45.735 -43.44664062 46.31765625 -42.44921875 46.91796875 C-37.62225091 49.66848597 -32.71124729 52.26806582 -27.8203125 54.90234375 C-11.2104439 63.8553188 5.51254096 72.90600372 11.69140625 91.71875 C15.67476317 106.71342476 15.64305138 127.20199677 7.8046875 140.83984375 C0.46649878 150.86627982 -12.65885631 155.56365097 -24.47949219 157.6105957 C-46.61937178 160.47977081 -70.42175192 159.42333924 -88.77734375 145.44140625 C-95.76308707 139.17629751 -98.34422221 130.07806114 -99.6953125 121.02734375 C-99.92057435 116.66788482 -99.88526579 112.32849799 -99.8203125 107.96484375 C-99.7790625 104.02546875 -99.7378125 100.08609375 -99.6953125 96.02734375 C-84.1853125 96.02734375 -68.6753125 96.02734375 -52.6953125 96.02734375 C-52.3203125 110.83984375 -52.3203125 110.83984375 -52.21728516 115.50317383 C-52.1816748 116.71384521 -52.14606445 117.9245166 -52.109375 119.171875 C-52.0779541 120.41300049 -52.0465332 121.65412598 -52.01416016 122.93286133 C-51.92132041 126.19370476 -51.92132041 126.19370476 -49.6953125 129.02734375 C-46.79922851 129.39232409 -46.79922851 129.39232409 -43.5703125 129.21484375 C-42.47460938 129.18777344 -41.37890625 129.16070313 -40.25 129.1328125 C-39.40695312 129.09800781 -38.56390625 129.06320312 -37.6953125 129.02734375 C-35.08563171 120.95916728 -33.87264384 111.23325058 -36.6328125 103.02734375 C-42.20791191 94.91810825 -51.93130309 90.40231591 -60.3203125 85.71484375 C-95.13174592 65.90648242 -95.13174592 65.90648242 -100.6953125 47.02734375 C-101.09207969 42.82572143 -101.10903517 38.63580152 -101.12084961 34.41650391 C-101.13265775 32.42839812 -101.18229183 30.44063375 -101.23242188 28.453125 C-101.2889813 18.17987732 -99.55140973 9.04769947 -92.5703125 1.15234375 C-69.3412897 -19.24750319 -24.20167192 -17.71281786 0 0 Z " fill="#FDFDFE" transform="translate(466.6953125,415.97265625)"/>
<path d="M0 0 C1.97685791 0.01135986 1.97685791 0.01135986 3.99365234 0.02294922 C20.23732584 0.29765398 37.20674914 3.45674914 49.1875 15.4375 C57.14635998 26.52305497 55.1875 40.46373483 55.1875 53.4375 C39.6775 53.4375 24.1675 53.4375 8.1875 53.4375 C7.8575 46.1775 7.5275 38.9175 7.1875 31.4375 C4.78403621 29.03403621 4.04849805 29.11666253 0.75 29.0625 C-0.03246094 29.03414063 -0.81492187 29.00578125 -1.62109375 28.9765625 C-3.91129527 29.27232382 -3.91129527 29.27232382 -5.5703125 30.96875 C-7.29011554 34.38672333 -7.28775023 37.57179543 -7.25 41.3125 C-7.26998047 42.00730469 -7.28996094 42.70210938 -7.31054688 43.41796875 C-7.30567026 48.59693655 -6.17952113 51.54001949 -2.8125 55.4375 C0.0115999 57.51037395 0.0115999 57.51037395 3.3125 59.1875 C3.91433105 59.51621094 4.51616211 59.84492188 5.13623047 60.18359375 C6.44693652 60.89858473 7.76105662 61.60734467 9.078125 62.31054688 C51.15589715 84.79098625 51.15589715 84.79098625 57.1875 102.4375 C59.02722897 110.0407909 59.5750641 117.50893834 59.5625 125.3125 C59.56088867 126.36099121 59.55927734 127.40948242 59.55761719 128.48974609 C59.39892253 138.5295169 58.07420158 148.59431209 51.1875 156.4375 C38.23677206 168.57094899 20.94255075 170.61874216 4.0625 170.6875 C2.19851563 170.7184375 2.19851563 170.7184375 0.296875 170.75 C-15.73962177 170.81695823 -32.61765149 167.09812064 -44.6015625 155.7421875 C-53.74679634 145.6959454 -54.14178737 132.68428325 -53.9375 119.75 C-53.89625 116.016875 -53.855 112.28375 -53.8125 108.4375 C-38.3025 108.4375 -22.7925 108.4375 -6.8125 108.4375 C-6.4375 123.25 -6.4375 123.25 -6.33447266 127.91333008 C-6.2988623 129.12400146 -6.26325195 130.33467285 -6.2265625 131.58203125 C-6.1951416 132.82315674 -6.1637207 134.06428223 -6.13134766 135.34301758 C-6.03850791 138.60386101 -6.03850791 138.60386101 -3.8125 141.4375 C-1.4837213 141.91574351 -1.4837213 141.91574351 1.125 141.8125 C2.43791016 141.82410156 2.43791016 141.82410156 3.77734375 141.8359375 C6.61047357 141.36757568 7.44939705 140.67142542 9.1875 138.4375 C10.86137623 135.08974754 10.41422443 131.36503953 10.4375 127.6875 C10.458125 126.88828125 10.47875 126.0890625 10.5 125.265625 C10.53760628 119.54947112 9.8852001 115.44343492 5.91186523 111.01611328 C0.27422972 105.72248407 -6.77932546 102.27783672 -13.5 98.5625 C-22.54866332 93.53989393 -31.29283433 88.33279301 -39.8125 82.4375 C-40.42488525 82.02467773 -41.03727051 81.61185547 -41.66821289 81.18652344 C-46.44690889 77.65107166 -49.04439131 72.56517121 -51.8125 67.4375 C-52.17859375 66.79941406 -52.5446875 66.16132813 -52.921875 65.50390625 C-55.69406005 59.07195059 -55.03160103 51.54707187 -55.0625 44.6875 C-55.083125 43.55828125 -55.10375 42.4290625 -55.125 41.265625 C-55.17521738 30.41867107 -53.45644856 21.48011255 -45.8125 13.4375 C-33.50834331 2.00654153 -16.12092742 -0.13002412 0 0 Z " fill="#FDFDFE" transform="translate(976.8125,403.5625)"/>
</svg>
